<?xml version="1.0" encoding="utf-8"?>
<svg
	version="1.1"
	xmlns="http://www.w3.org/2000/svg"
	xmlns:xlink="http://www.w3.org/1999/xlink"
	x="0%" y="0%"
	width="100%" height="100%"
	viewBox="0 0 10.0 10.0"
	enable-background="new 0 0 10.0 10.0"
	xml:space="preserve">
	<path
		fill="#FFB768"
		stroke="#000000"
		fill-opacity="1.000"
		stroke-opacity="0.000"
		fill-rule="nonzero"
		stroke-width="0.10455289"
		stroke-linejoin="miter"
		stroke-linecap="square"
		d="M5.03,9.55C4.69,9.54,4.36,9.53,4.14,9.41C3.92,9.28,3.82,9.03,3.59,8.71C3.36,8.40,3.00,8.01,2.73,7.72C2.45,7.43,2.26,7.23,2.21,6.92C2.17,6.61,2.26,6.19,2.41,5.79C2.56,5.39,2.76,5.01,2.83,4.73C2.89,4.46,2.81,4.28,2.89,4.06C2.97,3.83,3.21,3.55,3.15,3.17C3.10,2.79,2.76,2.30,2.81,2.25C2.87,2.19,3.31,2.56,3.51,2.88C3.71,3.19,3.67,3.44,3.80,3.48C3.94,3.51,4.26,3.33,4.50,3.25C4.74,3.18,4.90,3.22,5.05,3.26"/>
	<path
		fill="#030000"
		stroke="#000000"
		fill-opacity="0.800"
		stroke-opacity="0.000"
		fill-rule="nonzero"
		stroke-width="0.10455289"
		stroke-linejoin="miter"
		stroke-linecap="square"
		d="M5.15,7.01C5.05,7.01,4.94,7.00,4.81,7.04C4.67,7.07,4.51,7.15,4.45,7.26C4.40,7.37,4.46,7.51,4.55,7.63C4.63,7.74,4.74,7.82,4.84,7.87C4.94,7.92,5.05,7.94,5.15,7.96"/>
	<path
		fill="#030000"
		stroke="#000000"
		fill-opacity="0.800"
		stroke-opacity="0.000"
		fill-rule="nonzero"
		stroke-width="0.10455289"
		stroke-linejoin="miter"
		stroke-linecap="square"
		d="M4.71,7.30C4.77,7.27,4.86,7.34,4.92,7.46C4.98,7.57,4.97,7.69,4.91,7.72C4.85,7.75,4.75,7.68,4.70,7.56C4.64,7.45,4.65,7.33,4.71,7.30z"/>
	<path
		fill="#030000"
		stroke="#000000"
		fill-opacity="1.000"
		stroke-opacity="0.000"
		fill-rule="nonzero"
		stroke-width="0.10455289"
		stroke-linejoin="miter"
		stroke-linecap="square"
		d="M2.45,6.15C2.38,6.30,2.32,6.44,2.31,6.56C2.31,6.68,2.36,6.77,2.42,6.83C2.47,6.89,2.53,6.93,2.60,7.00C2.67,7.06,2.76,7.15,2.87,7.26C2.98,7.37,3.12,7.51,3.28,7.50C3.44,7.48,3.63,7.32,3.86,7.12C4.09,6.93,4.36,6.70,4.58,6.56C4.81,6.43,4.98,6.39,5.06,6.37C5.14,6.36,5.13,6.38,5.12,6.15C5.11,5.92,5.11,5.45,5.11,5.01C5.11,4.57,5.11,4.16,5.13,3.85C5.14,3.54,5.17,3.34,5.05,3.25C4.92,3.16,4.64,3.20,4.40,3.28C4.17,3.37,3.98,3.51,3.87,3.45C3.76,3.40,3.73,3.15,3.65,2.95C3.57,2.76,3.45,2.63,3.29,2.49C3.13,2.35,2.93,2.21,2.90,2.24C2.88,2.28,3.03,2.49,3.13,2.72C3.24,2.96,3.30,3.22,3.24,3.50C3.19,3.79,3.02,4.09,2.97,4.27C2.91,4.44,2.98,4.48,2.94,4.66C2.91,4.84,2.78,5.17,2.70,5.39C2.61,5.61,2.57,5.73,2.54,5.84"/>
	<path
		fill="#030000"
		stroke="#000000"
		fill-opacity="1.000"
		stroke-opacity="0.000"
		fill-rule="nonzero"
		stroke-width="0.10455289"
		stroke-linejoin="miter"
		stroke-linecap="square"
		d="M3.71,8.42C3.41,8.12,3.11,7.83,3.08,7.84C3.05,7.84,3.28,8.15,3.48,8.37C3.68,8.60,3.84,8.73,4.04,8.86C4.24,8.98,4.48,9.08,4.54,9.06C4.60,9.03,4.49,8.88,4.51,8.77C4.52,8.67,4.66,8.61,4.80,8.56C4.93,8.52,5.07,8.50,5.11,8.45C5.16,8.40,5.12,8.33,5.05,8.32C4.98,8.32,4.88,8.39,4.71,8.45C4.55,8.52,4.32,8.58,4.18,8.60C4.04,8.62,3.99,8.59,3.94,8.56"/>
	<path
		fill="#FF7C7D"
		stroke="#000000"
		fill-opacity="1.000"
		stroke-opacity="0.000"
		fill-rule="nonzero"
		stroke-width="0.10455289"
		stroke-linejoin="miter"
		stroke-linecap="square"
		d="M2.54,5.84C2.27,5.79,2.00,5.73,1.84,5.53C1.68,5.34,1.62,5.01,1.45,4.71C1.29,4.41,1.01,4.14,0.79,3.63C0.56,3.12,0.37,2.36,0.29,1.76C0.21,1.16,0.22,0.72,0.30,0.50C0.38,0.27,0.53,0.25,0.71,0.32C0.88,0.39,1.08,0.56,1.32,0.80C1.56,1.04,1.83,1.35,2.12,1.60C2.42,1.85,2.74,2.03,2.94,2.28C3.14,2.53,3.22,2.84,3.26,3.05C3.30,3.25,3.31,3.35,3.25,3.53C3.20,3.72,3.07,3.98,3.02,4.18C2.97,4.37,2.99,4.49,2.98,4.61C2.96,4.73,2.92,4.87,2.87,5.00C2.72,5.52,2.58,6.04,2.44,5.75C2.30,5.45,2.17,4.34,2.03,3.23"/>
	<path
		fill="#9B4D00"
		stroke="#000000"
		fill-opacity="1.000"
		stroke-opacity="0.000"
		fill-rule="nonzero"
		stroke-width="0.10455289"
		stroke-linejoin="miter"
		stroke-linecap="square"
		d="M1.32,2.10C1.69,2.32,2.05,2.54,2.38,2.83C2.72,3.13,3.02,3.49,3.12,3.69C3.21,3.88,3.09,3.90,3.04,4.17C2.99,4.45,3.01,4.99,2.83,5.00C2.64,5.00,2.25,4.49,2.03,4.14C1.81,3.79,1.75,3.60,1.70,3.42"/>
	<path
		fill="#1E0F00"
		stroke="#140700"
		fill-opacity="1.000"
		stroke-opacity="0.514"
		fill-rule="nonzero"
		stroke-width="0.10455289"
		stroke-linejoin="miter"
		stroke-linecap="square"
		d="M4.08,5.01C4.44,5.01,4.74,5.29,4.74,5.64C4.74,5.99,4.44,6.28,4.08,6.28C3.72,6.28,3.43,5.99,3.43,5.64C3.43,5.29,3.72,5.01,4.08,5.01z"/>
	<path
		fill="#000000"
		stroke="#FFFFFF"
		fill-opacity="1.000"
		stroke-opacity="0.000"
		fill-rule="nonzero"
		stroke-width="0.10455289"
		stroke-linejoin="miter"
		stroke-linecap="square"
		d="M4.27,5.24C4.50,5.35,4.61,5.61,4.51,5.84C4.40,6.06,4.13,6.16,3.89,6.05C3.66,5.94,3.55,5.67,3.66,5.45C3.76,5.22,4.03,5.13,4.27,5.24z"/>
	<path
		fill="#FFFFFF"
		stroke="#FFFFFF"
		fill-opacity="1.000"
		stroke-opacity="0.000"
		fill-rule="nonzero"
		stroke-width="0.10455289"
		stroke-linejoin="miter"
		stroke-linecap="square"
		d="M3.99,5.36C4.05,5.37,4.09,5.42,4.09,5.49C4.09,5.56,4.04,5.61,3.98,5.60C3.92,5.60,3.88,5.55,3.88,5.48C3.88,5.41,3.93,5.36,3.99,5.36z"/>
	<path
		fill="#FFB768"
		stroke="#000000"
		fill-opacity="1.000"
		stroke-opacity="0.000"
		fill-rule="nonzero"
		stroke-width="0.10455289"
		stroke-linejoin="miter"
		stroke-linecap="square"
		d="M5.02,9.55C5.36,9.54,5.69,9.53,5.91,9.40C6.13,9.27,6.23,9.02,6.46,8.71C6.69,8.39,7.05,8.01,7.32,7.71C7.60,7.42,7.79,7.22,7.84,6.91C7.89,6.60,7.79,6.18,7.65,5.78C7.50,5.38,7.29,5.00,7.22,4.73C7.16,4.45,7.24,4.28,7.16,4.05C7.08,3.82,6.84,3.55,6.90,3.16C6.95,2.78,7.29,2.29,7.24,2.24C7.19,2.18,6.74,2.56,6.54,2.87C6.34,3.18,6.39,3.44,6.25,3.47C6.11,3.51,5.78,3.32,5.55,3.25C5.32,3.18,5.19,3.22,5.05,3.26"/>
	<path
		fill="#030000"
		stroke="#000000"
		fill-opacity="0.800"
		stroke-opacity="0.000"
		fill-rule="nonzero"
		stroke-width="0.10455289"
		stroke-linejoin="miter"
		stroke-linecap="square"
		d="M5.02,7.01C5.07,7.00,5.13,7.00,5.24,7.03C5.36,7.07,5.54,7.14,5.60,7.25C5.66,7.36,5.59,7.51,5.50,7.62C5.41,7.74,5.30,7.82,5.21,7.86C5.13,7.91,5.07,7.92,5.02,7.94"/>
	<path
		fill="#030000"
		stroke="#000000"
		fill-opacity="0.800"
		stroke-opacity="0.000"
		fill-rule="nonzero"
		stroke-width="0.10455289"
		stroke-linejoin="miter"
		stroke-linecap="square"
		d="M5.34,7.29C5.41,7.32,5.41,7.44,5.35,7.56C5.30,7.67,5.20,7.74,5.14,7.72C5.08,7.69,5.08,7.57,5.13,7.45C5.19,7.33,5.28,7.26,5.34,7.29z"/>
	<path
		fill="#030000"
		stroke="#000000"
		fill-opacity="1.000"
		stroke-opacity="0.000"
		fill-rule="nonzero"
		stroke-width="0.10455289"
		stroke-linejoin="miter"
		stroke-linecap="square"
		d="M7.60,6.15C7.67,6.29,7.73,6.43,7.74,6.55C7.74,6.67,7.69,6.76,7.63,6.82C7.58,6.89,7.52,6.93,7.45,6.99C7.38,7.05,7.29,7.14,7.18,7.25C7.07,7.37,6.94,7.51,6.77,7.49C6.61,7.48,6.42,7.31,6.20,7.11C5.97,6.92,5.73,6.70,5.47,6.56C5.21,6.42,4.95,6.35,4.87,6.34C4.79,6.33,4.89,6.36,4.93,6.14C4.97,5.92,4.95,5.44,4.94,5.00C4.93,4.56,4.94,4.15,4.92,3.85C4.91,3.54,4.88,3.33,5.00,3.24C5.13,3.16,5.41,3.19,5.65,3.28C5.88,3.36,6.07,3.50,6.18,3.45C6.29,3.39,6.32,3.14,6.40,2.95C6.48,2.75,6.60,2.62,6.76,2.48C6.92,2.34,7.12,2.20,7.15,2.23C7.17,2.27,7.02,2.48,6.92,2.72C6.81,2.95,6.75,3.21,6.81,3.49C6.86,3.78,7.03,4.09,7.08,4.26C7.14,4.44,7.08,4.47,7.11,4.66C7.14,4.84,7.27,5.16,7.35,5.38C7.44,5.60,7.48,5.72,7.52,5.84"/>
	<path
		fill="#030000"
		stroke="#000000"
		fill-opacity="1.000"
		stroke-opacity="0.000"
		fill-rule="nonzero"
		stroke-width="0.10455289"
		stroke-linejoin="miter"
		stroke-linecap="square"
		d="M6.34,8.41C6.64,8.12,6.94,7.82,6.97,7.83C7.00,7.84,6.77,8.14,6.57,8.37C6.37,8.59,6.21,8.73,6.01,8.85C5.81,8.97,5.57,9.07,5.51,9.05C5.45,9.03,5.57,8.88,5.55,8.77C5.53,8.66,5.37,8.59,5.25,8.56C5.13,8.52,5.05,8.53,5.00,8.48C4.96,8.44,4.97,8.34,5.02,8.33C5.07,8.31,5.17,8.38,5.34,8.45C5.50,8.51,5.73,8.58,5.87,8.59C6.01,8.61,6.06,8.58,6.11,8.55"/>
	<path
		fill="#FF7C7D"
		stroke="#000000"
		fill-opacity="1.000"
		stroke-opacity="0.000"
		fill-rule="nonzero"
		stroke-width="0.10455289"
		stroke-linejoin="miter"
		stroke-linecap="square"
		d="M7.52,5.84C7.78,5.78,8.05,5.72,8.21,5.53C8.37,5.33,8.43,5.00,8.60,4.70C8.76,4.40,9.04,4.13,9.26,3.62C9.49,3.11,9.68,2.35,9.76,1.75C9.85,1.16,9.83,0.72,9.75,0.49C9.67,0.26,9.52,0.24,9.34,0.31C9.17,0.39,8.97,0.55,8.73,0.79C8.50,1.03,8.23,1.34,7.93,1.59C7.63,1.84,7.31,2.03,7.11,2.28C6.91,2.53,6.83,2.84,6.79,3.04C6.75,3.25,6.74,3.34,6.80,3.53C6.85,3.71,6.98,3.98,7.03,4.17C7.08,4.36,7.06,4.48,7.07,4.60C7.09,4.73,7.13,4.86,7.18,4.99C7.33,5.51,7.47,6.04,7.61,5.74C7.75,5.45,7.89,4.34,8.02,3.23"/>
	<path
		fill="#9B4D00"
		stroke="#000000"
		fill-opacity="1.000"
		stroke-opacity="0.000"
		fill-rule="nonzero"
		stroke-width="0.10455289"
		stroke-linejoin="miter"
		stroke-linecap="square"
		d="M8.73,2.09C8.36,2.31,8.00,2.53,7.67,2.83C7.33,3.12,7.03,3.49,6.93,3.68C6.84,3.87,6.96,3.89,7.01,4.17C7.06,4.44,7.04,4.98,7.22,4.99C7.41,5.00,7.80,4.48,8.02,4.13C8.24,3.78,8.30,3.60,8.35,3.41"/>
	<path
		fill="#1E0F00"
		stroke="#140700"
		fill-opacity="1.000"
		stroke-opacity="0.514"
		fill-rule="nonzero"
		stroke-width="0.10455289"
		stroke-linejoin="miter"
		stroke-linecap="square"
		d="M5.97,5.00C6.33,5.00,6.63,5.28,6.63,5.63C6.63,5.99,6.33,6.27,5.97,6.27C5.61,6.27,5.31,5.99,5.31,5.63C5.31,5.28,5.61,5.00,5.97,5.00z"/>
	<path
		fill="#000000"
		stroke="#FFFFFF"
		fill-opacity="1.000"
		stroke-opacity="0.000"
		fill-rule="nonzero"
		stroke-width="0.10455289"
		stroke-linejoin="miter"
		stroke-linecap="square"
		d="M5.78,5.23C6.02,5.12,6.29,5.21,6.40,5.44C6.50,5.66,6.39,5.93,6.16,6.04C5.92,6.15,5.65,6.06,5.54,5.83C5.44,5.61,5.55,5.34,5.78,5.23z"/>
	<path
		fill="#FFFFFF"
		stroke="#FFFFFF"
		fill-opacity="1.000"
		stroke-opacity="0.000"
		fill-rule="nonzero"
		stroke-width="0.10455289"
		stroke-linejoin="miter"
		stroke-linecap="square"
		d="M6.06,5.36C6.12,5.35,6.17,5.41,6.17,5.47C6.17,5.54,6.13,5.59,6.07,5.60C6.01,5.60,5.96,5.55,5.96,5.48C5.96,5.42,6.00,5.36,6.06,5.36z"/>
	<path
		fill="#FF8A8A"
		stroke="#000000"
		fill-opacity="1.000"
		stroke-opacity="0.000"
		fill-rule="nonzero"
		stroke-width="0.10455289"
		stroke-linejoin="miter"
		stroke-linecap="square"
		d="M5.03,9.24C4.98,9.25,4.93,9.26,4.86,9.25C4.79,9.24,4.71,9.22,4.62,9.11C4.54,9.01,4.45,8.82,4.52,8.70C4.59,8.59,4.81,8.54,5.03,8.50C5.25,8.54,5.46,8.58,5.53,8.70C5.59,8.81,5.51,9.00,5.43,9.11C5.34,9.21,5.26,9.23,5.19,9.24C5.12,9.25,5.06,9.25,5.01,9.24"/>
</svg>